# xmcd
#
# Track frame offsets:
#	150
#	18782
#	39941
#	64181
#	87695
#	109685
#	170396
#	186423
#	210343
#	228174
#	247435
#	267278
#
# Disc length: 3805 seconds
#
# Revision: 1
# Processed by: cddbd v1.5.1PL2 Copyright (c) Steve Scherf et al.
# Submitted via: EasyCDDAExtractor 9.0.0.1
#
DISCID=a10edb0c
DTITLE=Ozzy Osbourne - Boston Gardens Boston 02-04-82 Source 2
DYEAR=1982
DGENRE=Hard Rock
TTITLE0=Over The Mountain
TTITLE1=Mr Crowley
TTITLE2=Crazy Train
TTITLE3=Revelation (Mother Earth)
TTITLE4=Steal Away (The Night)
TTITLE5=Suicide Solution - Guitar and Drum Solo
TTITLE6=I Don't Know
TTITLE7=Believer
TTITLE8=Flying High Again
TTITLE9=Iron Man
TTITLE10=Children Of The Grave
TTITLE11=Paranoid
EXTD=
EXTT0=
EXTT1=
EXTT2=
EXTT3=
EXTT4=
EXTT5=
EXTT6=
EXTT7=
EXTT8=
EXTT9=
EXTT10=
EXTT11=
PLAYORDER=
